<svg xmlns="http://www.w3.org/2000/svg" viewBox="0 0 560 230" width="560" height="230" role="img" aria-label="Charleston Fashion and Design">
<g transform="translate(132.98,120) scale(0.09600,-0.09600)"><path d="M411.000244140625 636Q453.00006103515625 636 485.50006103515625 632.2000122070312Q518.0000610351562 628.4000244140625 546.2000732421875 619.6000671386719Q574.4000854492188 610.8001098632812 603.199951171875 596.2001953125Q609.7999877929688 592.4002075195312 611.5 589.5001831054688Q613.2000122070312 586.6001586914062 614.2000122070312 574.0001831054688L626.4000244140625 454.9998779296875Q626.4000244140625 452.79986572265625 621.0000305175781 451.3998718261719Q615.6000366210938 449.9998779296875 614.4000244140625 453.9998779296875Q591.199951171875 536.599853515625 540.4999389648438 578.5998840332031Q489.7999267578125 620.5999145507812 407.800048828125 620.5999145507812Q323.00030517578125 620.5999145507812 259.5004577636719 583.6999206542969Q196.0006103515625 546.7999267578125 160.70068359375 478.99993896484375Q125.4007568359375 411.199951171875 125.4007568359375 318.99993896484375Q125.4007568359375 252.9998779296875 147.80068969726562 195.29989624023438Q170.20062255859375 137.59991455078125 210.00051879882812 94.39996337890625Q249.8004150390625 51.20001220703125 301.2003173828125 26.900054931640625Q352.6002197265625 2.60009765625 411.400146484375 2.60009765625Q494.39996337890625 2.60009765625 545.2998962402344 43.50006103515625Q596.1998291015625 84.4000244140625 622.0000610351562 165.2000732421875Q623.2000732421875 168.2000732421875 628.5000610351562 167.2000732421875Q633.800048828125 166.2000732421875 633.800048828125 164.00006103515625L624.3999633789062 54.39984130859375Q623.3999633789062 42.39984130859375 621.2999572753906 39.299835205078125Q619.199951171875 36.1998291015625 612.5999145507812 32.1998291015625Q560.5999755859375 6.39996337890625 514.699951171875 -3.20001220703125Q468.7999267578125 -12.79998779296875 410.60015869140625 -12.79998779296875Q305.0001220703125 -12.79998779296875 223.40008544921875 28.5Q141.800048828125 69.79998779296875 95.4000244140625 144.29995727539062Q49 218.7999267578125 49 316.79986572265625Q49 388.79986572265625 75.9000244140625 447.2998962402344Q102.800048828125 505.7999267578125 151.90008544921875 548.0999450683594Q201.0001220703125 590.3999633789062 266.8001708984375 613.1999816894531Q332.6002197265625 636 411.000244140625 636Z" fill="#ffffff"/></g>
<g transform="translate(214.19,120) scale(0.09600,-0.09600)"><path d="M41.9998779296875 0Q39.79986572265625 0 39.79986572265625 6.0Q39.79986572265625 12 41.9998779296875 12Q79.1998291015625 12 97.69979858398438 17.0Q116.19976806640625 22 122.499755859375 37.0Q128.79974365234375 52 128.79974365234375 81V544Q128.79974365234375 573 122.59976196289062 587.5Q116.3997802734375 602 98.1998291015625 607.5Q79.9998779296875 613 43.39996337890625 613Q41.199951171875 613 41.199951171875 619.0Q41.199951171875 625 43.39996337890625 625H445.00030517578125Q454.2003173828125 625 454.2003173828125 616L456.2003173828125 492.599853515625Q456.2003173828125 489.79986572265625 450.8003234863281 489.599853515625Q445.40032958984375 489.39984130859375 445.00030517578125 492.39984130859375Q441.80010986328125 545.7999267578125 412.5999755859375 574.89990234375Q383.39984130859375 603.9998779296875 335.79962158203125 603.9998779296875H274.60009765625Q225.400390625 603.9998779296875 209.40042114257812 591.7998657226562Q193.40045166015625 579.599853515625 193.40045166015625 543V85Q193.40045166015625 55 201.80044555664062 39.5Q210.200439453125 24 236.400390625 18.0Q262.600341796875 12 314.80023193359375 12Q317.6002197265625 12 317.6002197265625 6.0Q317.6002197265625 0 314.80023193359375 0Q282.40020751953125 0 244.50018310546875 1.0Q206.60015869140625 2 160.800048828125 2Q128 2 97.199951171875 1.0Q66.39990234375 0 41.9998779296875 0ZM394.2003173828125 220.79986572265625Q394.2003173828125 264.7998046875 370.8002014160156 283.8998718261719Q347.40008544921875 302.99993896484375 291.60003662109375 302.99993896484375H162.80010986328125V323.800048828125H295Q348.40008544921875 323.800048828125 370.8002014160156 340.80010986328125Q393.2003173828125 357.8001708984375 393.2003173828125 394.400146484375Q393.2003173828125 396.400146484375 399.2003173828125 396.400146484375Q405.2003173828125 396.400146484375 405.2003173828125 394.400146484375Q405.2003173828125 364.40008544921875 404.7003173828125 347.9000549316406Q404.2003173828125 331.4000244140625 404.2003173828125 313Q404.2003173828125 290.39996337890625 405.2003173828125 268.3999328613281Q406.2003173828125 246.39990234375 406.2003173828125 220.79986572265625Q406.2003173828125 218.599853515625 400.2003173828125 218.599853515625Q394.2003173828125 218.599853515625 394.2003173828125 220.79986572265625Z" fill="#ffffff"/></g>
<g transform="translate(278.42,120) scale(0.09600,-0.09600)"><path d="M64.20001220703125 137.39990234375Q64.20001220703125 182.7998046875 86.0 217.79974365234375Q107.79998779296875 252.7996826171875 142.49996948242188 281.899658203125Q177.199951171875 310.9996337890625 215.89993286132812 337.69964599609375Q254.59991455078125 364.399658203125 289.2998962402344 392.99969482421875Q323.9998779296875 421.5997314453125 345.79986572265625 454.9997863769531Q367.599853515625 488.39984130859375 367.599853515625 530.5999145507812Q367.599853515625 576.39990234375 343.7998962402344 600.89990234375Q319.99993896484375 625.39990234375 280.800048828125 625.39990234375Q243.2001953125 625.39990234375 222.40032958984375 602.0999755859375Q201.6004638671875 578.800048828125 201.6004638671875 529.4002685546875Q201.6004638671875 476.80023193359375 223.9005126953125 423.4001770019531Q246.2005615234375 370.0001220703125 285.1006164550781 317.8000793457031Q324.00067138671875 265.60003662109375 374.5007019042969 216.80001831054688Q425.000732421875 168 480.6007080078125 126.20001220703125Q544.4008178710938 78.7999267578125 601.4007263183594 49.299957275390625Q658.400634765625 19.79998779296875 697.0004272460938 12Q701.8004150390625 11 700.9004211425781 5.5Q700.0004272460938 0 697.0004272460938 0Q674.80029296875 0 645.7000732421875 0.0Q616.599853515625 0 588.9995727539062 0Q576.3995971679688 0 555.1996459960938 8.0Q533.9996948242188 16 501.4997253417969 36.5Q468.999755859375 57 421.5997314453125 96Q372.39984130859375 135.59991455078125 324.3998718261719 182.599853515625Q276.39990234375 229.59979248046875 236.89990234375 280.0997314453125Q197.39990234375 330.59967041015625 172.59991455078125 378.599609375Q159.59991455078125 408.3995361328125 151.99990844726562 435.0995178222656Q144.39990234375 461.79949951171875 144.39990234375 487.39959716796875Q144.39990234375 530.7997436523438 164.99993896484375 566.7998352050781Q185.5999755859375 602.7999267578125 223.00006103515625 624.3999633789062Q260.400146484375 646 310.00030517578125 646Q336.60052490234375 646 363.8005676269531 637.5999450683594Q391.0006103515625 629.1998901367188 409.1005859375 607.5998840332031Q427.2005615234375 585.9998779296875 427.2005615234375 546.7999877929688Q427.2005615234375 504.4000244140625 405.7005615234375 472.60003662109375Q384.2005615234375 440.800048828125 349.8005676269531 414.4000549316406Q315.40057373046875 388.00006103515625 277.40057373046875 363.4000549316406Q239.40057373046875 338.800048828125 205.00057983398438 311.6000671386719Q170.6005859375 284.40008544921875 149.1005859375 250.60012817382812Q127.6005859375 216.8001708984375 127.6005859375 172.000244140625Q127.6005859375 130.00030517578125 149.20059204101562 94.7003173828125Q170.80059814453125 59.40032958984375 208.70065307617188 38.600311279296875Q246.6007080078125 17.80029296875 295.0008544921875 17.80029296875Q342.4007568359375 17.80029296875 382.0006103515625 38.3001708984375Q421.6004638671875 58.800048828125 450.3003234863281 93.59988403320312Q479.00018310546875 128.39971923828125 494.5000915527344 172.6995849609375Q510 216.99945068359375 510 265.19940185546875Q510 297.3997802734375 497.4999084472656 317.19989013671875Q484.99981689453125 337 438.599853515625 337Q435.79986572265625 337 435.29986572265625 343.0Q434.79986572265625 349 438.599853515625 349L647.80029296875 350Q651.6002807617188 350 651.6002807617188 344.0Q651.6002807617188 338 647.80029296875 338Q613.0003662109375 338 596.0003967285156 331.3999938964844Q579.0004272460938 324.79998779296875 571.9004211425781 311.8999328613281Q564.8004150390625 298.9998779296875 559.2003784179688 278.79974365234375Q549.6004028320312 244.99981689453125 534.200439453125 205.69985961914062Q518.8004760742188 166.39990234375 495.3005065917969 127.89993286132812Q471.800537109375 89.39996337890625 437.9005432128906 57.5999755859375Q404.00054931640625 25.79998779296875 357.4005126953125 6.899993896484375Q310.80047607421875 -12 250.0003662109375 -12Q186.000244140625 -12 144.70016479492188 9.399993896484375Q103.40008544921875 30.79998779296875 83.800048828125 65.39996337890625Q64.20001220703125 99.99993896484375 64.20001220703125 137.39990234375Z" fill="#E9C3B8"/></g>
<g transform="translate(360.69,120) scale(0.09600,-0.09600)"><path d="M302.80035400390625 -4Q274.00030517578125 -4 231.6002197265625 -1.0Q189.20013427734375 2 153.25977837861473 2Q120.4000244140625 2 89.82856096540178 1.0Q59.25709751674107 0 34.7999267578125 0Q32.7999267578125 0 32.7999267578125 6.0Q32.7999267578125 12 34.7999267578125 12Q71.3642835828993 12 90.12757195366754 17.0Q108.89086032443576 22 115.14528978135851 37.0Q121.39971923828125 52 121.39971923828125 81V544Q121.39971923828125 573 115.16265663404144 587.5Q108.92559402980162 602 90.69418026356215 607.5Q72.46276649732269 613 35.99993896484375 613Q33.7999267578125 613 33.7999267578125 619.0Q33.7999267578125 625 35.99993896484375 625Q60.40478295016001 625 90.40240368211126 623.5Q120.4000244140625 622 153.30007934570312 622Q186.20013427734375 622 224.02748801491478 624.5Q261.8548417524858 627 288.80035400390625 627Q395.2003173828125 627 474.62196883236066 587.0Q554.0436202819088 547 598.22191390072 478.0Q642.4002075195312 409 642.4002075195312 323Q642.4002075195312 248 615.5896927682977 187.5Q588.7791780170642 127 541.6125316954495 84.5Q494.445885373835 42 432.8809996487802 19.0Q371.3161139237253 -4 302.80035400390625 -4ZM292.80035400390625 11.0001220703125Q372.69869522309637 11.0001220703125 434.0492072306888 44.30010986328125Q495.39971923828125 77.60009765625 530.599609375 142.63968617009658Q565.7994995117188 207.6792746839432 565.7994995117188 301.0185314824406Q565.7994995117188 388.39996337890625 532.9996032714844 458.5999450683594Q500.19970703125 528.7999267578125 440.3942681970731 570.4999084472656Q380.58882936289615 612.1998901367188 298.0003662109375 612.1998901367188Q237.54022216796875 612.1998901367188 211.77032470703125 600.0124092102051Q186.00042724609375 587.8249282836914 186.00042724609375 542V92Q186.00042724609375 50.2000732421875 206.2726355658637 30.60009765625Q226.54484388563367 11.0001220703125 292.80035400390625 11.0001220703125Z" fill="#ffffff"/></g>
<line x1="150" y1="150" x2="410" y2="150" stroke="#8a6f66" stroke-width="1.4"/>
<g transform="translate(63.54,182) scale(0.00908,-0.00908)"><path d="M783.8999633789062 -20Q590.56005859375 -20 438.72015380859375 71.69003295898438Q286.8802490234375 163.38006591796875 199.76031494140625 334.7000732421875Q112.640380859375 506.02008056640625 112.640380859375 744Q112.640380859375 983.159912109375 200.03030395507812 1154.5699157714844Q287.42022705078125 1325.9799194335938 439.3501281738281 1417.9899597167969Q591.280029296875 1510 783.8999633789062 1510Q901.5797729492188 1510 1005.1396484375 1476.1900329589844Q1108.6995239257812 1442.3800659179688 1190.3194580078125 1377.3501281738281Q1271.9393920898438 1312.3201904296875 1325.7093811035156 1219.2102966308594Q1379.4793701171875 1126.1004028320312 1398.3994140625 1007.5005493164062H1168.801025390625Q1154.6009521484375 1079.28076171875 1119.5208129882812 1133.8609008789062Q1084.440673828125 1188.4410400390625 1033.1705017089844 1226.2811279296875Q981.9003295898438 1264.1212158203125 918.9501647949219 1283.2212524414062Q856 1302.3212890625 786.0598754882812 1302.3212890625Q657.9996337890625 1302.3212890625 556.7493591308594 1237.6511535644531Q455.49908447265625 1172.9810180664062 397.35888671875 1048.500732421875Q339.21868896484375 924.0204467773438 339.21868896484375 744Q339.21868896484375 563.7196044921875 397.9488830566406 439.3293151855469Q456.6790771484375 314.93902587890625 557.7493591308594 251.30886840820312Q658.8196411132812 187.6787109375 785.6998901367188 187.6787109375Q855.6400146484375 187.6787109375 918.5001831054688 207.18875122070312Q981.3603515625 226.69879150390625 1032.8105163574219 264.1288757324219Q1084.2606811523438 301.5589599609375 1119.5208129882812 356.5491027832031Q1154.7809448242188 411.53924560546875 1169.1610107421875 482.49945068359375H1398.7593994140625Q1381.9193115234375 371.9193115234375 1329.8592529296875 280.29937744140625Q1277.7991943359375 188.679443359375 1196.9892272949219 121.07958984375Q1116.1792602539062 53.479736328125 1011.5394287109375 16.7398681640625Q906.8995971679688 -20 783.8999633789062 -20Z" fill="#E9C3B8"/></g>
<g transform="translate(82.02,182) scale(0.00908,-0.00908)"><path d="M164.880615234375 0V1490H393.3990478515625V860.0394287109375H1131.120849609375V1490H1359.6392822265625V0H1131.120849609375V663.6005859375H393.3990478515625V0Z" fill="#E9C3B8"/></g>
<g transform="translate(100.71,182) scale(0.00908,-0.00908)"><path d="M50.9200439453125 0 581.48046875 1490H861.238037109375L1400.7783813476562 0H1154.3402709960938L864.0792236328125 828.9222412109375Q830.2194213867188 930.00146484375 789.8294982910156 1066.90087890625Q749.4395751953125 1203.80029296875 696.4194946289062 1395.6002197265625H742.4990844726562Q690.6589965820312 1202.1602783203125 650.5290222167969 1063.620849609375Q610.3990478515625 925.0814208984375 579.3592529296875 828.9222412109375L297.918212890625 0ZM338.3994140625 392.6009521484375V583.0799560546875H1113.2990112304688V392.6009521484375Z" fill="#E9C3B8"/></g>
<g transform="translate(118.74,182) scale(0.00908,-0.00908)"><path d="M164.880615234375 0V1490H698.6396484375Q871.19970703125 1490 985.859619140625 1430.3200073242188Q1100.51953125 1370.6400146484375 1157.7194213867188 1264.9300842285156Q1214.9193115234375 1159.2201538085938 1214.9193115234375 1021.7203369140625Q1214.9193115234375 883.8605346679688 1157.4494323730469 780.4205932617188Q1099.9795532226562 676.9806518554688 985.0996704101562 619.7506408691406Q870.2197875976562 562.5206298828125 696.9397583007812 562.5206298828125H295.7196044921875V757.6195678710938H674.80029296875Q784.5206298828125 757.6195678710938 852.3307800292969 789.1496887207031Q920.1409301757812 820.6798095703125 952.0609741210938 879.7699890136719Q983.9810180664062 938.8601684570312 983.9810180664062 1021.7203369140625Q983.9810180664062 1106.2205200195312 952.0609741210938 1167.1307067871094Q920.1409301757812 1228.0408935546875 851.9207763671875 1261.3910217285156Q783.7006225585938 1294.7411499023438 673.1602783203125 1294.7411499023438H393.3990478515625V0ZM1011.8809814453125 0 651.1610107421875 673.3399047851562H904.0394287109375L1271.4793701171875 0Z" fill="#E9C3B8"/></g>
<g transform="translate(135.63,182) scale(0.00908,-0.00908)"><path d="M164.880615234375 0V1490H393.3990478515625V196.4388427734375H1067.5596923828125V0Z" fill="#E9C3B8"/></g>
<g transform="translate(150.99,182) scale(0.00908,-0.00908)"><path d="M164.880615234375 0V1490H1102.7593994140625V1293.5611572265625H393.3990478515625V849.679443359375H1052.4994506835938V654.6805419921875H393.3990478515625V196.4388427734375H1109.4194946289062V0Z" fill="#E9C3B8"/></g>
<g transform="translate(167.04,182) scale(0.00908,-0.00908)"><path d="M665.0996704101562 -24.56005859375Q498.159912109375 -24.56005859375 374.9801025390625 28.429901123046875Q251.80029296875 81.41986083984375 182.46038818359375 179.68966674804688Q113.1204833984375 277.95947265625 105.5604248046875 414.1190185546875H334.57904052734375Q341.85906982421875 332.9989013671875 387.5292053222656 279.8488464355469Q433.1993408203125 226.69879150390625 505.91949462890625 200.64877319335938Q578.6396484375 174.5987548828125 664.0197143554688 174.5987548828125Q758.5399780273438 174.5987548828125 832.4702453613281 204.53887939453125Q906.4005126953125 234.47900390625 948.9906921386719 288.8092346191406Q991.5808715820312 343.13946533203125 991.5808715820312 414.57977294921875Q991.5808715820312 479.74005126953125 954.500732421875 521.2301940917969Q917.4205932617188 562.7203369140625 853.6604614257812 590.2803955078125Q789.9003295898438 617.8404541015625 709.3603515625 638.9404907226562L534.7601318359375 686.5206298828125Q351.70025634765625 735.9006958007812 249.27035522460938 832.0706481933594Q146.8404541015625 928.2406005859375 146.8404541015625 1081.1004028320312Q146.8404541015625 1209.9802856445312 216.46038818359375 1306.6401977539062Q286.080322265625 1403.3001098632812 405.5901794433594 1456.6500549316406Q525.1000366210938 1510 675.039794921875 1510Q828.1595458984375 1510 944.4894104003906 1456.4700622558594Q1060.8192749023438 1402.9401245117188 1127.3992309570312 1309.8402709960938Q1193.9791870117188 1216.7404174804688 1197.439208984375 1097.8006591796875H975.0806884765625Q963.5206298828125 1200.3209228515625 880.1703186035156 1256.4010620117188Q796.8200073242188 1312.481201171875 670.1197509765625 1312.481201171875Q580.239501953125 1312.481201171875 513.5892639160156 1284.0410766601562Q446.93902587890625 1255.6009521484375 410.7188720703125 1206.2307434082031Q374.49871826171875 1156.8605346679688 374.49871826171875 1093.520263671875Q374.49871826171875 1023.2599487304688 417.95892333984375 979.539794921875Q461.41912841796875 935.8196411132812 523.9592895507812 910.57958984375Q586.4994506835938 885.3395385742188 643.3793334960938 870.3395385742188L787.51953125 832.0394287109375Q858.8590698242188 814.239501953125 934.2389526367188 783.5396118164062Q1009.6188354492188 752.8397216796875 1073.9089050292969 704.3598022460938Q1138.198974609375 655.8798828125 1177.819091796875 584.2898864746094Q1217.439208984375 512.6998901367188 1217.439208984375 412.1197509765625Q1217.439208984375 285.61993408203125 1152.3192749023438 186.80996704101562Q1087.1993408203125 88 963.679443359375 31.719970703125Q840.1595458984375 -24.56005859375 665.0996704101562 -24.56005859375Z" fill="#E9C3B8"/></g>
<g transform="translate(183.90,182) scale(0.00908,-0.00908)"><path d="M90.4403076171875 1293.5611572265625V1490H1246.6790771484375V1293.5611572265625H783.638916015625V0H555.1204833984375V1293.5611572265625Z" fill="#E9C3B8"/></g>
<g transform="translate(200.88,182) scale(0.00908,-0.00908)"><path d="M785.7999267578125 -20Q592.6400146484375 -20 440.44012451171875 71.69003295898438Q288.240234375 163.38006591796875 200.4403076171875 334.7000732421875Q112.640380859375 506.02008056640625 112.640380859375 744Q112.640380859375 983.159912109375 200.4403076171875 1154.5699157714844Q288.240234375 1325.9799194335938 440.44012451171875 1417.9899597167969Q592.6400146484375 1510 785.7999267578125 1510Q978.9598388671875 1510 1130.6597290039062 1417.9899597167969Q1282.359619140625 1325.9799194335938 1369.8395385742188 1154.5699157714844Q1457.3194580078125 983.159912109375 1457.3194580078125 744Q1457.3194580078125 505.840087890625 1369.8395385742188 334.52008056640625Q1282.359619140625 163.2000732421875 1130.6597290039062 71.60003662109375Q978.9598388671875 -20 785.7999267578125 -20ZM785.7999267578125 187.6787109375Q913.0401611328125 187.6787109375 1013.5204467773438 251.578857421875Q1114.000732421875 315.47900390625 1172.3709411621094 439.8692932128906Q1230.7411499023438 564.2595825195312 1230.7411499023438 744Q1230.7411499023438 925.5604248046875 1172.3709411621094 1050.0407104492188Q1114.000732421875 1174.52099609375 1013.5204467773438 1238.421142578125Q913.0401611328125 1302.3212890625 785.7999267578125 1302.3212890625Q657.919677734375 1302.3212890625 557.0293884277344 1238.0111389160156Q456.13909912109375 1173.7009887695312 397.67889404296875 1049.220703125Q339.21868896484375 924.7404174804688 339.21868896484375 744Q339.21868896484375 564.2595825195312 397.67889404296875 440.279296875Q456.13909912109375 316.29901123046875 557.0293884277344 251.98886108398438Q657.919677734375 187.6787109375 785.7999267578125 187.6787109375Z" fill="#E9C3B8"/></g>
<g transform="translate(219.98,182) scale(0.00908,-0.00908)"><path d="M164.880615234375 0V1490H427.759033203125L988.5808715820312 603.2373046875Q1016.5407104492188 559.2175903320312 1051.6206665039062 497.97772216796875Q1086.7006225585938 436.73785400390625 1125.8406372070312 360.4079895019531Q1164.9806518554688 284.078125 1203.16064453125 194.05841064453125H1174.720703125Q1166.440673828125 279.158447265625 1161.8106994628906 362.6982421875Q1157.1807250976562 446.238037109375 1155.28076171875 518.9877624511719Q1153.3807983398438 591.7374877929688 1153.3807983398438 642.2373046875V1490H1384.0591430664062V0H1119.5407104492188L617.1591796875 793.2822265625Q576.7393188476562 858.4019775390625 538.33935546875 924.141845703125Q499.93939208984375 989.8817138671875 453.4693298339844 1076.1916809082031Q406.999267578125 1162.5016479492188 339.59912109375 1287.0617065429688H375.85906982421875Q381.3990478515625 1177.1416625976562 386.0290222167969 1081.3417358398438Q390.65899658203125 985.5418090820312 393.51898193359375 912.1219482421875Q396.37896728515625 838.7020874023438 396.37896728515625 794.9222412109375V0Z" fill="#E9C3B8"/></g>
<g transform="translate(248.69,182) scale(0.00908,-0.00908)"><path d="M164.880615234375 0V1490H1092.3395385742188V1293.5611572265625H393.3990478515625V814.8798828125H1025.0595092773438V619.8809814453125H393.3990478515625V0Z" fill="#E9C3B8"/></g>
<g transform="translate(264.49,182) scale(0.00908,-0.00908)"><path d="M50.9200439453125 0 581.48046875 1490H861.238037109375L1400.7783813476562 0H1154.3402709960938L864.0792236328125 828.9222412109375Q830.2194213867188 930.00146484375 789.8294982910156 1066.90087890625Q749.4395751953125 1203.80029296875 696.4194946289062 1395.6002197265625H742.4990844726562Q690.6589965820312 1202.1602783203125 650.5290222167969 1063.620849609375Q610.3990478515625 925.0814208984375 579.3592529296875 828.9222412109375L297.918212890625 0ZM338.3994140625 392.6009521484375V583.0799560546875H1113.2990112304688V392.6009521484375Z" fill="#E9C3B8"/></g>
<g transform="translate(282.52,182) scale(0.00908,-0.00908)"><path d="M665.0996704101562 -24.56005859375Q498.159912109375 -24.56005859375 374.9801025390625 28.429901123046875Q251.80029296875 81.41986083984375 182.46038818359375 179.68966674804688Q113.1204833984375 277.95947265625 105.5604248046875 414.1190185546875H334.57904052734375Q341.85906982421875 332.9989013671875 387.5292053222656 279.8488464355469Q433.1993408203125 226.69879150390625 505.91949462890625 200.64877319335938Q578.6396484375 174.5987548828125 664.0197143554688 174.5987548828125Q758.5399780273438 174.5987548828125 832.4702453613281 204.53887939453125Q906.4005126953125 234.47900390625 948.9906921386719 288.8092346191406Q991.5808715820312 343.13946533203125 991.5808715820312 414.57977294921875Q991.5808715820312 479.74005126953125 954.500732421875 521.2301940917969Q917.4205932617188 562.7203369140625 853.6604614257812 590.2803955078125Q789.9003295898438 617.8404541015625 709.3603515625 638.9404907226562L534.7601318359375 686.5206298828125Q351.70025634765625 735.9006958007812 249.27035522460938 832.0706481933594Q146.8404541015625 928.2406005859375 146.8404541015625 1081.1004028320312Q146.8404541015625 1209.9802856445312 216.46038818359375 1306.6401977539062Q286.080322265625 1403.3001098632812 405.5901794433594 1456.6500549316406Q525.1000366210938 1510 675.039794921875 1510Q828.1595458984375 1510 944.4894104003906 1456.4700622558594Q1060.8192749023438 1402.9401245117188 1127.3992309570312 1309.8402709960938Q1193.9791870117188 1216.7404174804688 1197.439208984375 1097.8006591796875H975.0806884765625Q963.5206298828125 1200.3209228515625 880.1703186035156 1256.4010620117188Q796.8200073242188 1312.481201171875 670.1197509765625 1312.481201171875Q580.239501953125 1312.481201171875 513.5892639160156 1284.0410766601562Q446.93902587890625 1255.6009521484375 410.7188720703125 1206.2307434082031Q374.49871826171875 1156.8605346679688 374.49871826171875 1093.520263671875Q374.49871826171875 1023.2599487304688 417.95892333984375 979.539794921875Q461.41912841796875 935.8196411132812 523.9592895507812 910.57958984375Q586.4994506835938 885.3395385742188 643.3793334960938 870.3395385742188L787.51953125 832.0394287109375Q858.8590698242188 814.239501953125 934.2389526367188 783.5396118164062Q1009.6188354492188 752.8397216796875 1073.9089050292969 704.3598022460938Q1138.198974609375 655.8798828125 1177.819091796875 584.2898864746094Q1217.439208984375 512.6998901367188 1217.439208984375 412.1197509765625Q1217.439208984375 285.61993408203125 1152.3192749023438 186.80996704101562Q1087.1993408203125 88 963.679443359375 31.719970703125Q840.1595458984375 -24.56005859375 665.0996704101562 -24.56005859375Z" fill="#E9C3B8"/></g>
<g transform="translate(299.37,182) scale(0.00908,-0.00908)"><path d="M164.880615234375 0V1490H393.3990478515625V860.0394287109375H1131.120849609375V1490H1359.6392822265625V0H1131.120849609375V663.6005859375H393.3990478515625V0Z" fill="#E9C3B8"/></g>
<g transform="translate(318.06,182) scale(0.00908,-0.00908)"><path d="M393.3990478515625 1490V0H164.880615234375V1490Z" fill="#E9C3B8"/></g>
<g transform="translate(327.97,182) scale(0.00908,-0.00908)"><path d="M785.7999267578125 -20Q592.6400146484375 -20 440.44012451171875 71.69003295898438Q288.240234375 163.38006591796875 200.4403076171875 334.7000732421875Q112.640380859375 506.02008056640625 112.640380859375 744Q112.640380859375 983.159912109375 200.4403076171875 1154.5699157714844Q288.240234375 1325.9799194335938 440.44012451171875 1417.9899597167969Q592.6400146484375 1510 785.7999267578125 1510Q978.9598388671875 1510 1130.6597290039062 1417.9899597167969Q1282.359619140625 1325.9799194335938 1369.8395385742188 1154.5699157714844Q1457.3194580078125 983.159912109375 1457.3194580078125 744Q1457.3194580078125 505.840087890625 1369.8395385742188 334.52008056640625Q1282.359619140625 163.2000732421875 1130.6597290039062 71.60003662109375Q978.9598388671875 -20 785.7999267578125 -20ZM785.7999267578125 187.6787109375Q913.0401611328125 187.6787109375 1013.5204467773438 251.578857421875Q1114.000732421875 315.47900390625 1172.3709411621094 439.8692932128906Q1230.7411499023438 564.2595825195312 1230.7411499023438 744Q1230.7411499023438 925.5604248046875 1172.3709411621094 1050.0407104492188Q1114.000732421875 1174.52099609375 1013.5204467773438 1238.421142578125Q913.0401611328125 1302.3212890625 785.7999267578125 1302.3212890625Q657.919677734375 1302.3212890625 557.0293884277344 1238.0111389160156Q456.13909912109375 1173.7009887695312 397.67889404296875 1049.220703125Q339.21868896484375 924.7404174804688 339.21868896484375 744Q339.21868896484375 564.2595825195312 397.67889404296875 440.279296875Q456.13909912109375 316.29901123046875 557.0293884277344 251.98886108398438Q657.919677734375 187.6787109375 785.7999267578125 187.6787109375Z" fill="#E9C3B8"/></g>
<g transform="translate(347.07,182) scale(0.00908,-0.00908)"><path d="M164.880615234375 0V1490H427.759033203125L988.5808715820312 603.2373046875Q1016.5407104492188 559.2175903320312 1051.6206665039062 497.97772216796875Q1086.7006225585938 436.73785400390625 1125.8406372070312 360.4079895019531Q1164.9806518554688 284.078125 1203.16064453125 194.05841064453125H1174.720703125Q1166.440673828125 279.158447265625 1161.8106994628906 362.6982421875Q1157.1807250976562 446.238037109375 1155.28076171875 518.9877624511719Q1153.3807983398438 591.7374877929688 1153.3807983398438 642.2373046875V1490H1384.0591430664062V0H1119.5407104492188L617.1591796875 793.2822265625Q576.7393188476562 858.4019775390625 538.33935546875 924.141845703125Q499.93939208984375 989.8817138671875 453.4693298339844 1076.1916809082031Q406.999267578125 1162.5016479492188 339.59912109375 1287.0617065429688H375.85906982421875Q381.3990478515625 1177.1416625976562 386.0290222167969 1081.3417358398438Q390.65899658203125 985.5418090820312 393.51898193359375 912.1219482421875Q396.37896728515625 838.7020874023438 396.37896728515625 794.9222412109375V0Z" fill="#E9C3B8"/></g>
<g transform="translate(375.77,182) scale(0.00908,-0.00908)"><path d="M579.6400146484375 -20.719970703125Q430.30010986328125 -20.719970703125 321.68017578125 34.230010986328125Q213.06024169921875 89.17999267578125 154.75027465820312 182.219970703125Q96.4403076171875 275.25994873046875 96.4403076171875 390.25994873046875Q96.4403076171875 485.74005126953125 134.82037353515625 555.7500915527344Q173.200439453125 625.7601318359375 241.36053466796875 685.5001831054688Q309.5206298828125 745.240234375 396.720703125 808.1803588867188L638.7798461914062 979.6400146484375Q667.039794921875 999.8200073242188 696.6998901367188 1026.8300476074219Q726.3599853515625 1053.840087890625 746.2500915527344 1089.7802124023438Q766.1401977539062 1125.7203369140625 766.1401977539062 1171.6005859375Q766.1401977539062 1236.120849609375 722.4200439453125 1278.7909851074219Q678.6998901367188 1321.4611206054688 602.3796997070312 1321.4611206054688Q550.3395385742188 1321.4611206054688 510.6694030761719 1300.3510437011719Q470.999267578125 1279.240966796875 449.2991943359375 1241.8908386230469Q427.59912109375 1204.5407104492188 427.59912109375 1154.6805419921875Q427.59912109375 1101.0204467773438 452.7391357421875 1050.92041015625Q477.879150390625 1000.8203735351562 521.6091613769531 946.4503479003906Q565.3391723632812 892.080322265625 621.3391723632812 825.1602783203125L1313.8189086914062 0H1063.520263671875L491.50054931640625 671.1602783203125Q417.80029296875 759.3406372070312 356.1002197265625 834.4006958007812Q294.400146484375 909.4607543945312 257.4501647949219 986.5306701660156Q220.50018310546875 1063.6005859375 220.50018310546875 1154.9404907226562Q220.50018310546875 1256.640380859375 267.2101135253906 1335.7902526855469Q313.9200439453125 1414.9401245117188 399.2099304199219 1460.1900329589844Q484.49981689453125 1505.43994140625 598.2796630859375 1505.43994140625Q712.6195678710938 1505.43994140625 795.3294982910156 1460.5Q878.0394287109375 1415.56005859375 922.9393920898438 1340.7201538085938Q967.83935546875 1265.8802490234375 967.83935546875 1174.1803588867188Q967.83935546875 1106.0003662109375 942.7893371582031 1047.0104064941406Q917.7393188476562 988.0204467773438 873.3293151855469 937.9404907226562Q828.9193115234375 887.8605346679688 769.83935546875 844.320556640625L470.0394287109375 623.8605346679688Q388.29901123046875 563.6002197265625 352.7789306640625 509.8700256347656Q317.25885009765625 456.13983154296875 317.25885009765625 390.37969970703125Q317.25885009765625 322.95947265625 349.5589599609375 272.0492858886719Q381.85906982421875 221.13909912109375 439.999267578125 192.8389892578125Q498.13946533203125 164.53887939453125 574.0197143554688 164.53887939453125Q660.4998168945312 164.53887939453125 741.1498718261719 200.94888305664062Q821.7999267578125 237.35888671875 886.1699523925781 304.9089050292969Q950.5399780273438 372.45892333984375 988.4499816894531 467.198974609375Q1026.3599853515625 561.9390258789062 1026.3599853515625 679.2391357421875H1225.4589233398438Q1225.4589233398438 534.6589965820312 1192.7188720703125 435.1591796875Q1159.9788208007812 335.65936279296875 1113.5989379882812 272.6496887207031Q1067.2190551757812 209.6400146484375 1025.9795532226562 174.4403076171875L976.3001098632812 127.82037353515625Q900.4202270507812 52.6002197265625 792.3601684570312 15.94012451171875Q684.3001098632812 -20.719970703125 579.6400146484375 -20.719970703125Z" fill="#E9C3B8"/></g>
<g transform="translate(402.57,182) scale(0.00908,-0.00908)"><path d="M649.4998168945312 0H280.86016845703125V199.6787109375H636.7798461914062Q806.0003662109375 199.6787109375 918.1206665039062 262.9689636230469Q1030.240966796875 326.25921630859375 1086.0010986328125 448.6095275878906Q1141.76123046875 570.9598388671875 1141.76123046875 747.280029296875Q1141.76123046875 922.1401977539062 1086.2311096191406 1043.260498046875Q1030.7009887695312 1164.3807983398438 921.500732421875 1227.3510437011719Q812.3004760742188 1290.3212890625 649.3800659179688 1290.3212890625H273.22015380859375V1490H664Q884.159912109375 1490 1040.9098205566406 1400.9100036621094Q1197.6597290039062 1311.8200073242188 1281.6896667480469 1145.2300109863281Q1365.7196044921875 978.6400146484375 1365.7196044921875 747.280029296875Q1365.7196044921875 514.4600219726562 1281.3696594238281 347.0500183105469Q1197.0197143554688 179.6400146484375 1036.759765625 89.82000732421875Q876.4998168945312 0 649.4998168945312 0ZM393.3990478515625 1490V0H164.880615234375V1490Z" fill="#E9C3B8"/></g>
<g transform="translate(420.83,182) scale(0.00908,-0.00908)"><path d="M164.880615234375 0V1490H1102.7593994140625V1293.5611572265625H393.3990478515625V849.679443359375H1052.4994506835938V654.6805419921875H393.3990478515625V196.4388427734375H1109.4194946289062V0Z" fill="#E9C3B8"/></g>
<g transform="translate(436.88,182) scale(0.00908,-0.00908)"><path d="M665.0996704101562 -24.56005859375Q498.159912109375 -24.56005859375 374.9801025390625 28.429901123046875Q251.80029296875 81.41986083984375 182.46038818359375 179.68966674804688Q113.1204833984375 277.95947265625 105.5604248046875 414.1190185546875H334.57904052734375Q341.85906982421875 332.9989013671875 387.5292053222656 279.8488464355469Q433.1993408203125 226.69879150390625 505.91949462890625 200.64877319335938Q578.6396484375 174.5987548828125 664.0197143554688 174.5987548828125Q758.5399780273438 174.5987548828125 832.4702453613281 204.53887939453125Q906.4005126953125 234.47900390625 948.9906921386719 288.8092346191406Q991.5808715820312 343.13946533203125 991.5808715820312 414.57977294921875Q991.5808715820312 479.74005126953125 954.500732421875 521.2301940917969Q917.4205932617188 562.7203369140625 853.6604614257812 590.2803955078125Q789.9003295898438 617.8404541015625 709.3603515625 638.9404907226562L534.7601318359375 686.5206298828125Q351.70025634765625 735.9006958007812 249.27035522460938 832.0706481933594Q146.8404541015625 928.2406005859375 146.8404541015625 1081.1004028320312Q146.8404541015625 1209.9802856445312 216.46038818359375 1306.6401977539062Q286.080322265625 1403.3001098632812 405.5901794433594 1456.6500549316406Q525.1000366210938 1510 675.039794921875 1510Q828.1595458984375 1510 944.4894104003906 1456.4700622558594Q1060.8192749023438 1402.9401245117188 1127.3992309570312 1309.8402709960938Q1193.9791870117188 1216.7404174804688 1197.439208984375 1097.8006591796875H975.0806884765625Q963.5206298828125 1200.3209228515625 880.1703186035156 1256.4010620117188Q796.8200073242188 1312.481201171875 670.1197509765625 1312.481201171875Q580.239501953125 1312.481201171875 513.5892639160156 1284.0410766601562Q446.93902587890625 1255.6009521484375 410.7188720703125 1206.2307434082031Q374.49871826171875 1156.8605346679688 374.49871826171875 1093.520263671875Q374.49871826171875 1023.2599487304688 417.95892333984375 979.539794921875Q461.41912841796875 935.8196411132812 523.9592895507812 910.57958984375Q586.4994506835938 885.3395385742188 643.3793334960938 870.3395385742188L787.51953125 832.0394287109375Q858.8590698242188 814.239501953125 934.2389526367188 783.5396118164062Q1009.6188354492188 752.8397216796875 1073.9089050292969 704.3598022460938Q1138.198974609375 655.8798828125 1177.819091796875 584.2898864746094Q1217.439208984375 512.6998901367188 1217.439208984375 412.1197509765625Q1217.439208984375 285.61993408203125 1152.3192749023438 186.80996704101562Q1087.1993408203125 88 963.679443359375 31.719970703125Q840.1595458984375 -24.56005859375 665.0996704101562 -24.56005859375Z" fill="#E9C3B8"/></g>
<g transform="translate(453.74,182) scale(0.00908,-0.00908)"><path d="M393.3990478515625 1490V0H164.880615234375V1490Z" fill="#E9C3B8"/></g>
<g transform="translate(463.65,182) scale(0.00908,-0.00908)"><path d="M790.9799194335938 -20Q588.7400512695312 -20 436.1301574707031 72.91000366210938Q283.520263671875 165.82000732421875 198.080322265625 337.2300109863281Q112.640380859375 508.6400146484375 112.640380859375 743.6400146484375Q112.640380859375 982.2599487304688 199.25027465820312 1153.7599487304688Q285.86016845703125 1325.2599487304688 436.9200439453125 1417.6299743652344Q587.9799194335938 1510 780.7798461914062 1510Q901.2997436523438 1510 1005.7796630859375 1474.5500183105469Q1110.2595825195312 1439.1000366210938 1192.51953125 1373.3800659179688Q1274.7794799804688 1307.6600952148438 1328.2794799804688 1217.4401245117188Q1381.7794799804688 1127.2201538085938 1400.3395385742188 1018.5001831054688H1166.1810913085938Q1145.7009887695312 1084.3804321289062 1110.8508605957031 1136.5206298828125Q1076.000732421875 1188.6608276367188 1027.4605712890625 1225.9709777832031Q978.92041015625 1263.2811279296875 917.6902160644531 1282.8012084960938Q856.4600219726562 1302.3212890625 783.039794921875 1302.3212890625Q657.4395751953125 1302.3212890625 556.7393188476562 1238.2411499023438Q456.0390625 1174.1610107421875 397.6288757324219 1049.7707214355469Q339.21868896484375 925.3804321289062 339.21868896484375 744.719970703125Q339.21868896484375 565.3395385742188 397.7688903808594 441.17926025390625Q456.319091796875 317.01898193359375 558.3893737792969 252.34884643554688Q660.4596557617188 187.6787109375 791.6998901367188 187.6787109375Q911.5801391601562 187.6787109375 1001.3703918457031 236.40890502929688Q1091.16064453125 285.13909912109375 1140.5208129882812 374.8194580078125Q1189.8809814453125 464.49981689453125 1189.8809814453125 586.4403076171875L1249.2208862304688 575.9802856445312H824.7601318359375V763.9393920898438H1412.5994873046875V593.19970703125Q1412.5994873046875 404.77984619140625 1332.3395385742188 267.2499084472656Q1252.07958984375 129.719970703125 1112.0596923828125 54.8599853515625Q972.039794921875 -20 790.9799194335938 -20Z" fill="#E9C3B8"/></g>
<g transform="translate(482.39,182) scale(0.00908,-0.00908)"><path d="M164.880615234375 0V1490H427.759033203125L988.5808715820312 603.2373046875Q1016.5407104492188 559.2175903320312 1051.6206665039062 497.97772216796875Q1086.7006225585938 436.73785400390625 1125.8406372070312 360.4079895019531Q1164.9806518554688 284.078125 1203.16064453125 194.05841064453125H1174.720703125Q1166.440673828125 279.158447265625 1161.8106994628906 362.6982421875Q1157.1807250976562 446.238037109375 1155.28076171875 518.9877624511719Q1153.3807983398438 591.7374877929688 1153.3807983398438 642.2373046875V1490H1384.0591430664062V0H1119.5407104492188L617.1591796875 793.2822265625Q576.7393188476562 858.4019775390625 538.33935546875 924.141845703125Q499.93939208984375 989.8817138671875 453.4693298339844 1076.1916809082031Q406.999267578125 1162.5016479492188 339.59912109375 1287.0617065429688H375.85906982421875Q381.3990478515625 1177.1416625976562 386.0290222167969 1081.3417358398438Q390.65899658203125 985.5418090820312 393.51898193359375 912.1219482421875Q396.37896728515625 838.7020874023438 396.37896728515625 794.9222412109375V0Z" fill="#E9C3B8"/></g>
</svg>